<?xml version="1.0" standalone="no"?>
<!DOCTYPE svg PUBLIC "-//W3C//DTD SVG 20010904//EN"
 "http://www.w3.org/TR/2001/REC-SVG-20010904/DTD/svg10.dtd">
<svg version="1.0" xmlns="http://www.w3.org/2000/svg"
 width="284.000000pt" height="284.000000pt" viewBox="0 0 284.000000 284.000000"
 preserveAspectRatio="xMidYMid meet">
<metadata>
Created by potrace 1.11, written by Peter Selinger 2001-2013
</metadata>
<g transform="translate(0.000000,284.000000) scale(0.100000,-0.100000)"
fill="#000000" stroke="none">
<path d="M1163 2738 c-12 -15 -94 -568 -87 -580 11 -18 33 -6 38 20 3 15 22
145 42 290 25 178 34 266 27 273 -7 7 -13 6 -20 -3z"/>
<path d="M526 2721 c-3 -5 -15 -7 -26 -4 -15 4 -20 0 -20 -15 0 -11 -3 -27 -6
-36 -4 -12 0 -16 15 -16 12 0 21 -4 21 -10 0 -5 7 -10 15 -10 8 0 15 7 15 15
0 8 7 15 15 15 17 0 20 16 5 25 -5 3 -10 15 -10 26 0 20 -15 26 -24 10z"/>
<path d="M945 2690 c-11 -18 15 -120 31 -120 22 0 25 20 11 74 -12 49 -29 67
-42 46z"/>
<path d="M634 2594 c3 -7 1 -16 -4 -19 -16 -10 -11 -22 16 -40 15 -10 29 -13
33 -8 3 5 14 12 24 16 18 7 24 27 7 27 -5 0 -10 8 -10 18 0 14 -8 18 -36 19
-26 1 -34 -3 -30 -13z"/>
<path d="M1320 2561 c-21 -46 -21 -71 0 -71 13 0 62 99 55 110 -13 22 -33 8
-55 -39z"/>
<path d="M1640 2597 c0 -9 -4 -17 -9 -19 -5 -1 -7 -15 -4 -30 5 -24 9 -27 32
-21 31 7 27 3 34 34 5 20 2 28 -11 33 -9 3 -23 9 -29 12 -8 3 -13 -1 -13 -9z"/>
<path d="M974 2545 c-6 -14 6 -96 23 -157 5 -21 31 -24 38 -5 2 6 -3 48 -13
91 -16 77 -35 105 -48 71z"/>
<path d="M802 2527 c-7 -9 13 -51 74 -152 46 -77 88 -141 94 -143 5 -2 13 3
16 12 5 14 -145 278 -165 291 -5 2 -13 -1 -19 -8z"/>
<path d="M1506 2487 c-28 -23 -29 -47 -2 -47 15 0 56 42 56 58 0 19 -22 14
-54 -11z"/>
<path d="M1245 2420 c-20 -39 -33 -75 -30 -80 4 -6 0 -10 -8 -10 -17 0 -62
-94 -53 -109 14 -22 27 -10 59 52 17 35 49 96 69 134 20 39 34 73 31 77 -17
17 -36 0 -68 -64z"/>
<path d="M593 2464 c-6 -16 8 -31 65 -71 18 -13 26 -13 35 -4 9 10 2 21 -33
51 -51 44 -58 47 -67 24z"/>
<path d="M1271 2274 c-100 -91 -181 -170 -181 -175 0 -29 55 10 209 150 161
146 184 172 162 185 -5 4 -91 -68 -190 -160z"/>
<path d="M454 2409 c-14 -16 -15 -23 -6 -26 6 -3 12 -12 12 -20 0 -10 6 -13
16 -9 9 3 21 6 28 6 8 0 13 13 14 30 0 17 -3 30 -8 30 -5 0 -15 2 -22 5 -8 3
-23 -4 -34 -16z"/>
<path d="M720 2355 c0 -16 167 -155 187 -155 34 0 15 26 -68 94 -90 75 -119
90 -119 61z"/>
<path d="M1015 2350 c-6 -10 -1 -61 11 -102 5 -18 29 -24 38 -10 2 4 -1 32 -7
62 -12 52 -28 72 -42 50z"/>
<path d="M1525 2271 c-33 -16 -93 -41 -133 -56 -80 -31 -85 -35 -72 -54 6 -11
22 -8 80 15 40 15 74 34 77 40 3 7 10 11 17 8 14 -5 101 29 110 44 3 5 0 14
-7 20 -8 7 -30 2 -72 -17z"/>
<path d="M527 2283 c-4 -3 -7 -10 -7 -15 0 -12 90 -49 101 -42 20 12 6 32 -34
48 -48 18 -51 19 -60 9z"/>
<path d="M657 2226 c-8 -21 6 -29 130 -71 88 -31 115 -37 125 -27 7 7 8 15 3
21 -8 7 -238 91 -250 91 -1 0 -5 -6 -8 -14z"/>
<path d="M944 2178 c-4 -7 6 -23 27 -40 52 -45 68 -52 75 -33 4 10 -7 27 -32
50 -42 36 -58 42 -70 23z"/>
<path d="M1233 2150 c-43 -19 -54 -36 -30 -46 21 -8 107 33 107 51 0 20 -25
18 -77 -5z"/>
<path d="M1253 2085 c-3 -9 -3 -19 1 -22 9 -9 450 -3 460 7 25 25 -13 30 -230
30 -193 0 -225 -2 -231 -15z"/>
<path d="M412 2073 c3 -15 13 -18 63 -18 47 0 60 3 60 15 0 11 -15 16 -63 18
-57 3 -63 1 -60 -15z"/>
<path d="M572 2073 c3 -16 17 -18 123 -18 106 0 120 2 123 18 3 15 -8 17 -123
17 -115 0 -126 -2 -123 -17z"/>
<path d="M856 2081 c-11 -18 24 -32 71 -29 36 2 49 7 51 21 3 15 -5 17 -57 17
-33 0 -62 -4 -65 -9z"/>
<path d="M1090 2045 c0 -24 49 -95 65 -95 22 0 18 26 -11 70 -27 40 -54 53
-54 25z"/>
<path d="M1175 2050 c-10 -16 2 -27 50 -45 45 -18 80 -14 73 6 -2 6 -26 20
-53 30 -58 22 -62 22 -70 9z"/>
<path d="M850 1890 c-96 -87 -175 -164 -175 -171 0 -34 39 -6 205 146 163 151
193 185 157 185 -7 0 -91 -72 -187 -160z"/>
<path d="M701 1939 c-102 -43 -189 -83 -195 -89 -7 -7 -7 -13 1 -21 16 -16
413 150 413 174 0 10 -7 17 -17 16 -10 -1 -101 -37 -202 -80z"/>
<path d="M1387 1983 c-16 -16 -4 -31 36 -47 55 -21 79 -21 75 0 -2 9 -25 25
-53 35 -59 22 -50 20 -58 12z"/>
<path d="M1047 1973 c-3 -4 -8 -31 -12 -59 -7 -52 5 -78 26 -57 14 14 16 115
2 120 -6 2 -13 0 -16 -4z"/>
<path d="M1224 1969 c-3 -6 2 -19 12 -29 49 -49 330 -269 339 -267 6 2 10 10
10 17 0 13 -332 290 -347 290 -4 0 -10 -5 -14 -11z"/>
<path d="M1170 1914 c0 -25 100 -184 116 -184 25 0 15 30 -37 116 -47 78 -79
106 -79 68z"/>
<path d="M972 1908 c-22 -28 -192 -356 -192 -371 0 -9 6 -17 14 -17 17 0 220
376 211 390 -8 14 -21 12 -33 -2z"/>
<path d="M1113 1898 c-7 -9 2 -72 30 -205 35 -166 43 -193 59 -193 10 0 18 6
18 13 -1 33 -78 379 -87 388 -7 7 -13 6 -20 -3z"/>
<path d="M1637 1893 c-21 -3 -27 -9 -23 -20 4 -9 2 -21 -4 -28 -8 -10 -3 -17
21 -29 39 -20 39 -20 39 -1 0 8 7 15 15 15 17 0 20 16 5 25 -5 3 -10 15 -10
26 0 10 -3 18 -7 18 -5 -1 -21 -4 -36 -6z"/>
<path d="M1025 1818 c-9 -27 -33 -203 -28 -210 9 -16 33 -7 37 15 13 60 27
180 22 193 -7 17 -25 18 -31 2z"/>
<path d="M1795 1727 c-170 -88 -168 -80 -77 -262 39 -80 72 -147 72 -150 0 -3
-339 -5 -752 -5 l-753 0 3 -537 c4 -583 3 -572 58 -593 15 -6 305 -10 725 -10
760 0 742 -1 767 55 9 19 12 153 12 496 l0 470 249 -499 c141 -282 257 -502
266 -506 36 -13 70 -4 185 54 121 61 140 78 140 125 0 39 -671 1387 -701 1408
-38 27 -67 20 -194 -46z m476 -689 c181 -365 329 -665 329 -668 0 -8 -192
-102 -197 -96 -2 2 -152 302 -333 665 l-329 661 97 50 c53 27 98 49 100 49 2
1 151 -297 333 -661z m-521 -293 l0 -475 -685 0 -685 0 0 475 0 475 685 0 685
0 0 -475z"/>
<path d="M832 1133 c-67 -33 -81 -110 -31 -168 l31 -35 233 0 c218 0 234 1
258 20 14 11 31 36 37 55 16 47 -11 103 -60 127 -50 26 -418 26 -468 1z m438
-98 c0 -13 -29 -15 -199 -15 -181 0 -223 5 -204 24 3 3 96 6 205 6 169 0 198
-2 198 -15z"/>
<path d="M1300 1698 c0 -22 51 -98 65 -98 22 0 18 25 -10 70 -24 38 -55 54
-55 28z"/>
<path d="M595 1660 c-24 -25 -26 -30 -12 -36 20 -7 66 26 67 49 0 26 -23 21
-55 -13z"/>
<path d="M480 1575 c0 -7 -8 -19 -17 -25 -17 -10 -17 -10 0 -20 9 -6 17 -18
17 -25 0 -17 16 -20 25 -5 3 6 14 10 23 10 13 0 17 8 16 32 -1 23 -6 33 -17
33 -8 0 -19 4 -23 8 -12 12 -24 8 -24 -8z"/>
<path d="M986 1553 c-14 -50 -17 -101 -6 -108 19 -12 31 9 37 69 5 47 3 56
-10 56 -9 0 -18 -8 -21 -17z"/>
<path d="M1480 1525 c0 -9 -7 -18 -15 -21 -8 -4 -15 -10 -15 -15 0 -5 7 -9 15
-9 8 0 15 -9 15 -20 0 -21 15 -27 25 -10 3 6 14 10 24 10 13 0 17 8 17 36 0
29 -3 34 -18 31 -10 -3 -21 -1 -24 4 -9 14 -24 10 -24 -6z"/>
</g>
</svg>
